<svg width="146" height="160" viewBox="0 0 146 160" fill="none" xmlns="http://www.w3.org/2000/svg">
<path fill-rule="evenodd" clip-rule="evenodd" d="M29.8978 0C38.6762 0 45.8596 7.18278 45.8596 15.9618V19.2529C54.2439 15.8947 63.3949 14.0445 72.9783 14.0445C113.283 14.0445 145.956 46.7178 145.956 87.0222C145.956 127.327 113.283 160 72.9783 160C32.6732 160 0 127.327 0 87.0222C0 70.9916 5.17267 56.1699 13.9354 44.1303V15.9618C13.9354 7.18278 21.1188 0 29.8978 0Z" fill="#03026B"/>
<path fill-rule="evenodd" clip-rule="evenodd" d="M72.9785 33.0178C102.805 33.0178 126.982 57.1964 126.982 87.0223C126.982 116.848 102.805 141.027 72.9785 141.027C43.1485 141.027 18.6173 116.561 18.9792 86.6364L18.9746 15.8895C18.9746 9.83986 23.9231 4.89197 29.9721 4.89197C36.0211 4.89197 40.9697 9.83986 40.9697 15.8895V43.5261C49.9273 36.923 60.9961 33.0178 72.9785 33.0178Z" fill="white"/>
<path d="M72.9783 124.972C93.937 124.972 110.927 107.981 110.927 87.0223C110.927 66.0635 93.937 49.073 72.9783 49.073C52.0197 49.073 35.0293 66.0635 35.0293 87.0223C35.0293 107.981 52.0197 124.972 72.9783 124.972Z" fill="#03026B"/>
<path fill-rule="evenodd" clip-rule="evenodd" d="M64.2932 69.7451C65.9384 69.7451 67.2846 71.0581 67.2846 72.6643V85.2258C72.3298 80.3024 77.5204 75.626 82.5616 70.758C83.7084 69.6506 85.5793 69.6552 86.7202 70.7685C87.8617 71.8825 87.8575 73.6982 86.71 74.8063L73.8153 87.2558L79.843 93.201L86.5401 99.8063C87.6745 100.926 87.6697 102.751 86.5288 103.864C85.3873 104.978 83.5272 104.974 82.3917 103.854C77.435 98.9645 72.2724 94.2512 67.2846 89.3839V101.855C67.2846 103.461 65.9384 104.775 64.2932 104.775C62.6479 104.775 61.3018 103.461 61.3018 101.855V72.6643C61.3018 71.0581 62.6485 69.7451 64.2932 69.7451Z" fill="white"/>
</svg>
