<svg width="102" height="40" viewBox="0 0 102 40" fill="none" xmlns="http://www.w3.org/2000/svg">
<g clip-path="url(#clip0_109_2557)">
<path d="M45.3613 11.0365H45.9326C46.6383 11.0365 47.1217 10.9624 47.3854 10.8167C47.6466 10.6686 47.7785 10.4142 47.7785 10.0535C47.7785 9.67885 47.6564 9.41734 47.4098 9.26465C47.1656 9.11454 46.687 9.03813 45.9766 9.03813H45.3613V11.0365ZM73.2998 23.5286C74.0776 23.5286 74.7084 24.068 74.7084 24.7332C74.7084 25.3982 74.0776 25.9377 73.2998 25.9377C72.522 25.9377 71.8912 25.3982 71.8912 24.7332C71.8912 24.068 72.522 23.5286 73.2998 23.5286ZM42.71 16.9892V7.06775H45.5836C46.7652 7.06775 47.5905 7.10475 48.0616 7.17645C48.5304 7.24818 48.9333 7.3731 49.2726 7.54869C49.6584 7.75215 49.9539 8.02519 50.1565 8.36511C50.3592 8.70732 50.4592 9.10059 50.4592 9.54922C50.4592 10.1135 50.3079 10.5623 50.0051 10.8952C49.7025 11.2259 49.2189 11.4781 48.5547 11.6515C49.2971 11.7049 49.8806 11.9521 50.2981 12.3914C50.718 12.8333 50.928 13.4207 50.928 14.1584C50.928 14.6858 50.8108 15.1506 50.574 15.553C50.3395 15.9555 50.0002 16.2674 49.5632 16.4874C49.2067 16.6678 48.7647 16.7973 48.2423 16.8737C47.7173 16.9501 46.8604 16.9892 45.6689 16.9892H42.71ZM45.3613 14.9634H46.3623C47.0386 14.9634 47.5173 14.8824 47.798 14.7227C48.0788 14.5608 48.2179 14.2926 48.2179 13.918C48.2179 13.5017 48.0886 13.2125 47.8321 13.0461C47.5758 12.8818 47.0997 12.7986 46.4063 12.7986H45.3613V14.9634ZM57.4492 12.6878C57.4005 12.2992 57.2442 11.9869 56.9806 11.751C56.7145 11.515 56.3896 11.3971 56.0015 11.3971C55.5865 11.3971 55.2544 11.5035 55.0077 11.7185C54.7636 11.9336 54.6001 12.2574 54.517 12.6878H57.4492ZM59.9543 14.0475H54.461C54.4658 14.5748 54.6098 14.9819 54.8905 15.2686C55.1739 15.5554 55.5724 15.6752 56.0871 15.6987C56.7395 15.7282 57.6212 15.2346 57.6623 14.4901L59.9112 14.4992C59.8395 16.1074 57.9813 17.253 56.231 17.253C54.9712 17.253 53.8138 16.9221 53.0546 16.2607C52.2929 15.5971 51.912 14.725 51.912 13.6404C51.912 12.5742 52.2924 11.6877 53.0521 10.9832C53.8131 10.2773 54.9225 9.78206 56.0844 9.78206C57.281 9.78206 58.3722 10.2823 59.0631 10.997C59.7541 11.7117 59.9543 12.69 59.9543 13.9319V14.0475ZM61.4166 16.9892L61.4177 9.84961L63.7518 9.84518L63.7508 10.8276C64.0878 10.2702 64.4789 10.1465 64.9228 9.88835C65.3638 9.63192 65.8969 9.78206 66.5146 9.78206C66.9834 9.78206 67.3992 9.85297 67.7623 9.99477C68.1264 10.1369 68.4244 10.3417 68.6511 10.61C68.8441 10.8387 68.9785 11.2653 69.0587 11.5937C69.1394 11.9243 69.1808 12.417 69.1808 13.0715V16.9892H66.632V13.3236C66.632 12.7756 66.5366 12.38 66.3486 12.1303C66.1607 11.8829 65.8603 11.7579 65.4452 11.7579C64.9154 11.7579 64.5296 11.943 64.2856 12.313C64.0438 12.6829 63.9217 13.2842 63.9217 14.1169V16.9892H61.4166ZM76.4859 13.5479C76.4859 13.0206 76.3368 12.6067 76.0389 12.3059C75.741 12.0054 75.3309 11.8548 74.8061 11.8548C74.2762 11.8548 73.8611 12.0054 73.5584 12.3059C73.2557 12.6067 73.1043 13.0206 73.1043 13.5479C73.1043 14.0705 73.2557 14.4846 73.5584 14.7875C73.8611 15.0906 74.2762 15.2408 74.8061 15.2408C75.326 15.2408 75.7362 15.0906 76.0365 14.7875C76.3344 14.4846 76.4859 14.0705 76.4859 13.5479ZM78.7295 10.004V17.55C78.7295 19.7428 76.6398 21.0036 74.4984 21.0036C72.5413 21.0036 70.8483 19.5656 70.9398 17.614L73.4625 17.6732C73.4509 18.315 73.7145 18.8438 74.6864 18.8512C75.9892 18.861 76.2782 18.0806 76.2782 17.1616V15.8376C76.0122 16.2674 75.6703 16.5891 75.2552 16.7996C74.0237 17.4241 72.3607 17.1317 71.4782 16.1335C70.9019 15.4814 70.6139 14.6095 70.6139 13.5201C70.6139 12.4217 70.9174 11.4037 71.5198 10.7557C72.1232 10.1063 72.9334 9.78206 73.954 9.78206C74.4935 9.78206 74.9578 9.88807 75.3529 10.1012C75.746 10.3132 76.0853 10.647 76.371 11.1002V10.004H78.7295ZM80.6656 16.9892V7.19H83.1705V13.1361L85.7951 10.1482H88.957L85.7097 13.4392L89.2499 16.9892H85.8954L83.1705 13.948V16.9892H80.6656ZM94.5016 12.6878C94.4528 12.2992 94.2965 11.9869 94.0329 11.751C93.7668 11.515 93.442 11.3971 93.0539 11.3971C92.6388 11.3971 92.3067 11.5035 92.0601 11.7185C91.8159 11.9336 91.6523 12.2574 91.5693 12.6878H94.5016ZM97.0066 14.0475H91.5134C91.518 14.5748 91.6622 14.9819 91.9429 15.2686C92.2261 15.5554 92.624 15.6987 93.1393 15.6987C94.2248 15.6987 94.7586 15.0865 94.7829 14.4549L96.9976 14.4446C96.9255 16.0294 95.1454 17.253 93.2834 17.253C92.0236 17.253 91.0128 16.9222 90.2534 16.2607C89.4916 15.597 89.1108 14.725 89.1108 13.6404C89.1108 12.5742 89.4911 11.5436 90.2509 10.839C91.0121 10.1331 91.9747 9.78206 93.1368 9.78206C94.3333 9.78206 95.2782 10.1382 95.969 10.8528C96.8018 11.7144 97.0066 12.9328 97.0066 14.0475ZM98.5424 16.9892V7.19H101.091V16.9892H98.5424ZM42.71 33.6359V23.7145H45.5372V28.2219L48.8479 23.7145H52.1733L48.3059 28.5527L52.5101 33.6359H48.948L45.5372 29.184V33.6359H42.71ZM58.43 30.0874C58.43 29.3219 57.7682 28.3008 56.7754 28.3008C55.757 28.3008 55.1203 29.3045 55.1203 30.0874C55.1203 30.9009 55.6572 32.0137 56.7754 32.0137C57.8504 32.0137 58.43 30.8575 58.43 30.0874ZM60.8185 30.2317C60.8185 30.7243 60.716 31.1938 60.5133 31.6356C60.3106 32.0797 60.0177 32.4772 59.6295 32.8288C59.2389 33.1804 58.8019 33.4486 58.3184 33.629C57.8326 33.8096 57.3198 33.8997 56.7754 33.8997C56.2212 33.8997 55.7035 33.8096 55.2202 33.629C54.7341 33.4486 54.3023 33.1804 53.9213 32.8288C53.5379 32.4844 53.2474 32.0911 53.0472 31.647C52.847 31.2008 52.7469 30.729 52.7469 30.2317C52.7469 29.7322 52.8467 29.1159 53.0448 28.6721C53.2419 28.2303 53.5345 27.8336 53.9213 27.4788C54.2983 27.1331 54.7274 26.8685 55.2128 26.6925C55.6962 26.5172 56.2164 26.4288 56.7754 26.4288C57.3346 26.4288 57.8548 26.5168 58.3356 26.6925C58.8162 26.8681 59.249 27.1319 59.6295 27.4788C60.0224 27.8369 60.3182 28.2373 60.5183 28.6791C60.7184 29.1206 60.8185 29.7368 60.8185 30.2317ZM67.6548 30.2224C67.6548 29.6906 67.6517 29.2702 67.3545 28.9621C67.0586 28.6551 66.6514 28.5018 66.1386 28.5018C65.6235 28.5018 65.2182 28.6546 64.9228 28.9621C64.6273 29.2697 64.4809 29.6906 64.4809 30.2224C64.4809 30.759 64.6273 31.1799 64.9204 31.4852C65.2133 31.7904 65.6185 31.9431 66.1386 31.9431C66.6514 31.9431 67.0586 31.7899 67.3545 31.4829C67.6517 31.1748 67.6548 30.7544 67.6548 30.2224ZM70.0622 23.8368V33.6359H67.7158V32.5258C67.391 32.9862 67.0274 33.3307 66.6221 33.5573C66.2168 33.7863 65.7676 33.8997 65.2718 33.8997C64.2563 33.8997 63.4482 33.5667 62.8475 32.903C62.2469 32.2392 61.9465 31.3441 61.9465 30.2201C61.9465 29.1309 62.2469 28.2498 62.845 27.579C63.4432 26.9086 64.2221 26.5731 65.184 26.5731C65.7944 26.5731 66.2925 26.6771 66.6758 26.8854C67.0592 27.0934 67.401 27.4424 67.7012 27.9306C67.6719 27.7687 67.652 27.5832 67.6378 27.3778C67.6237 27.1725 67.6158 26.9477 67.6158 26.7095V23.8368H70.0622ZM72.0276 33.6359L72.0415 26.5696H74.5624L74.5764 33.6359H72.0276ZM76.5247 33.6359V26.6508H78.8588V28.0384C79.0806 27.2845 79.9877 26.4288 81.6225 26.4288C82.0915 26.4288 82.507 26.4999 82.8703 26.6417C83.2343 26.7839 83.5326 26.9884 83.759 27.2565C83.952 27.4855 84.0866 27.7676 84.1667 28.0963C84.2474 28.4267 84.2889 29.0639 84.2889 29.7183V33.6359H81.7398V29.9707C81.7398 29.4223 81.6446 29.0268 81.4566 28.7772C81.2687 28.5296 80.9683 28.4047 80.5533 28.4047C80.0234 28.4047 79.6377 28.59 79.3935 28.9598C79.1519 29.3297 79.0297 29.931 79.0297 30.7637V33.6359H76.5247ZM91.4473 30.1947C91.4473 29.6674 91.4448 29.2533 91.1469 28.9528C90.8492 28.6523 90.439 28.5018 89.9139 28.5018C89.3842 28.5018 88.9692 28.6523 88.6665 28.9528C88.3636 29.2535 88.2123 29.6674 88.2123 30.1947C88.2123 30.7173 88.3636 31.1313 88.6665 31.4343C88.9692 31.7373 89.3842 31.8876 89.9139 31.8876C90.434 31.8876 90.845 31.7379 91.1446 31.4343C91.4431 31.1319 91.4473 30.7173 91.4473 30.1947ZM93.8376 26.6508L93.8118 34.2719C93.8042 36.499 91.9561 37.5285 89.7751 37.506C87.5779 37.4833 86.1135 35.9467 86.0479 34.3348L88.6028 34.3864C88.7227 35.0391 89.1044 35.5092 89.7944 35.498C91.0898 35.4769 91.3862 34.8655 91.3862 33.7861V32.4844C91.1201 32.9145 90.7783 33.2359 90.3633 33.4465C89.1315 34.0706 87.4689 33.7788 86.5863 32.7803C86.01 32.1282 85.7219 31.2563 85.7219 30.1669C85.7219 29.0685 86.0255 28.0503 86.6278 27.4024C87.2312 26.7531 88.0414 26.4288 89.062 26.4288C89.6016 26.4288 90.0658 26.5347 90.4609 26.748C90.8542 26.96 91.1934 27.438 91.4791 27.8911V26.6508H93.8376Z" fill="black"/>
<path fill-rule="evenodd" clip-rule="evenodd" d="M7.46353 0.00358582C9.65807 0.00358582 11.4539 1.79924 11.4539 3.99394V4.81669C13.5499 3.97716 15.8376 3.51464 18.2334 3.51464C28.3093 3.51464 36.4774 11.6827 36.4774 21.7586C36.4774 31.8345 28.3093 40.0026 18.2334 40.0026C8.15737 40.0026 -0.0107422 31.8345 -0.0107422 21.7586C-0.0107422 17.7511 1.28239 14.0457 3.47301 11.0359V3.99394C3.47301 1.79924 5.26883 0.00358582 7.46353 0.00358582Z" fill="#03026B"/>
<path fill-rule="evenodd" clip-rule="evenodd" d="M18.2331 8.25789C25.6894 8.25789 31.7337 14.3024 31.7337 21.7587C31.7337 29.215 25.6894 35.2595 18.2331 35.2595C10.7758 35.2595 4.64309 29.1432 4.73357 21.6622L4.73242 3.97592C4.73242 2.46355 5.96951 1.22661 7.48173 1.22661C8.99395 1.22661 10.2311 2.46355 10.2311 3.97592V10.8849C12.4704 9.23417 15.2375 8.25789 18.2331 8.25789Z" fill="white"/>
<path d="M18.2331 31.2458C23.4727 31.2458 27.7201 26.9983 27.7201 21.7587C27.7201 16.5191 23.4727 12.2716 18.2331 12.2716C12.9936 12.2716 8.74609 16.5191 8.74609 21.7587C8.74609 26.9983 12.9936 31.2458 18.2331 31.2458Z" fill="#03026B"/>
<path fill-rule="evenodd" clip-rule="evenodd" d="M16.0623 17.4395C16.4736 17.4395 16.8101 17.7677 16.8101 18.1693V21.3096C18.0714 20.0788 19.369 18.9097 20.6293 17.6927C20.916 17.4159 21.3837 17.417 21.6689 17.6953C21.9543 17.9738 21.9532 18.4278 21.6664 18.7048L18.4428 21.8171L19.9497 23.3033L21.6239 24.9546C21.9075 25.2344 21.9063 25.6907 21.6211 25.969C21.3357 26.2475 20.8707 26.2466 20.5868 25.9665C19.3477 24.7442 18.057 23.5659 16.8101 22.3491V25.4668C16.8101 25.8683 16.4736 26.1967 16.0623 26.1967C15.651 26.1967 15.3145 25.8682 15.3145 25.4668V18.1693C15.3145 17.7677 15.6511 17.4395 16.0623 17.4395Z" fill="white"/>
</g>
<defs>
<clipPath id="clip0_109_2557">
<rect width="101.102" height="40" fill="white"/>
</clipPath>
</defs>
</svg>
